<svg width="19" height="13" viewBox="0 0 19 13" fill="none" xmlns="http://www.w3.org/2000/svg">
<path d="M7.6125 6.07656C8.6625 5.57344 9.1875 4.775 9.1875 3.68125C9.1875 2.5875 8.82656 1.81094 8.10469 1.35156C7.49219 0.957813 6.61719 0.760938 5.47969 0.760938H0V12.4094H5.64375C6.80312 12.4094 7.74375 12.1359 8.46562 11.5891C9.31875 10.9984 9.74531 10.1453 9.74531 9.02969C9.74531 8.28594 9.55937 7.6625 9.1875 7.15938C8.8375 6.63438 8.3125 6.27344 7.6125 6.07656ZM2.55937 2.7625H4.95469C6.11406 2.7625 6.69375 3.2 6.69375 4.075C6.69375 4.55625 6.55156 4.91719 6.26719 5.15781C6.00469 5.37656 5.63281 5.48594 5.15156 5.48594H2.55937V2.7625ZM5.28281 10.4406H2.55937V7.225H5.34844C6.57344 7.225 7.18594 7.78281 7.18594 8.89844C7.18594 9.92656 6.55156 10.4406 5.28281 10.4406ZM17.0625 2.53281H12.3375V1.38438H17.0625V2.53281ZM18.9 8.30781C18.9 7.01719 18.55 5.94531 17.85 5.09219C17.0844 4.19531 16.0672 3.74688 14.7984 3.74688C13.9672 3.74688 13.2234 3.94375 12.5672 4.3375C11.9109 4.73125 11.3969 5.26719 11.025 5.94531C10.675 6.62344 10.5 7.37813 10.5 8.20938C10.5 9.52188 10.8828 10.5828 11.6484 11.3922C12.4359 12.2016 13.4859 12.6063 14.7984 12.6063C16.8109 12.6063 18.1234 11.6656 18.7359 9.78438H16.7016C16.5922 10.1344 16.3516 10.4078 15.9797 10.6047C15.6297 10.8016 15.2578 10.9 14.8641 10.9C14.2078 10.9 13.6937 10.7141 13.3219 10.3422C12.9719 9.97031 12.7969 9.43438 12.7969 8.73438H18.8672L18.9 8.30781ZM12.7969 7.29063C12.8406 6.74375 13.0375 6.30625 13.3875 5.97813C13.7375 5.65 14.1859 5.48594 14.7328 5.48594C15.3016 5.48594 15.7391 5.65 16.0453 5.97813C16.3516 6.28438 16.5266 6.72188 16.5703 7.29063H12.7969Z" fill="white"/>
</svg>
