<svg width="15" height="16" viewBox="0 0 15 16" fill="none" xmlns="http://www.w3.org/2000/svg">
<path d="M14.7 1.925V13.475C14.7 13.9125 14.5469 14.2844 14.2406 14.5906C13.9344 14.8969 13.5625 15.05 13.125 15.05H10.3359V9.24219H12.3047L12.6 7.01094H10.3359V5.6C10.3359 5.25 10.4016 4.9875 10.5328 4.8125C10.7078 4.61563 11.0031 4.51719 11.4187 4.51719H12.6V2.54844C12.1406 2.48281 11.5719 2.45 10.8937 2.45C10.0187 2.45 9.31875 2.7125 8.79375 3.2375C8.29062 3.74063 8.03906 4.45156 8.03906 5.37031V7.01094H6.0375V9.24219H8.03906V15.05H1.575C1.1375 15.05 0.765625 14.8969 0.459375 14.5906C0.153125 14.2844 0 13.9125 0 13.475V1.925C0 1.4875 0.153125 1.11563 0.459375 0.809376C0.765625 0.503126 1.1375 0.350001 1.575 0.350001H13.125C13.5625 0.350001 13.9344 0.503126 14.2406 0.809376C14.5469 1.11563 14.7 1.4875 14.7 1.925Z" fill="#333333"/>
</svg>
