<svg width="15" height="16" viewBox="0 0 15 16" fill="none" xmlns="http://www.w3.org/2000/svg">
<path d="M4.69219 5.04219C5.43594 4.29844 6.33281 3.92656 7.38281 3.92656C8.43281 3.92656 9.31875 4.29844 10.0406 5.04219C10.7844 5.76406 11.1562 6.65 11.1562 7.7C11.1562 8.75 10.7844 9.64688 10.0406 10.3906C9.31875 11.1125 8.43281 11.4734 7.38281 11.4734C6.33281 11.4734 5.43594 11.1125 4.69219 10.3906C3.97031 9.64688 3.60937 8.75 3.60937 7.7C3.60937 6.65 3.97031 5.76406 4.69219 5.04219ZM5.64375 9.43906C6.125 9.92031 6.70469 10.1609 7.38281 10.1609C8.06094 10.1609 8.64062 9.92031 9.12187 9.43906C9.60312 8.95781 9.84375 8.37813 9.84375 7.7C9.84375 7.02188 9.60312 6.44219 9.12187 5.96094C8.64062 5.47969 8.06094 5.23906 7.38281 5.23906C6.70469 5.23906 6.125 5.47969 5.64375 5.96094C5.1625 6.44219 4.92187 7.02188 4.92187 7.7C4.92187 8.37813 5.1625 8.95781 5.64375 9.43906ZM11.9109 3.17188C12.0859 3.325 12.1734 3.52188 12.1734 3.7625C12.1734 4.00313 12.0859 4.21094 11.9109 4.38594C11.7578 4.56094 11.5609 4.64844 11.3203 4.64844C11.0797 4.64844 10.8719 4.56094 10.6969 4.38594C10.5219 4.21094 10.4344 4.00313 10.4344 3.7625C10.4344 3.52188 10.5219 3.325 10.6969 3.17188C10.8719 2.99688 11.0797 2.90938 11.3203 2.90938C11.5609 2.90938 11.7578 2.99688 11.9109 3.17188ZM14.7 4.68125C14.7219 5.27188 14.7328 6.27813 14.7328 7.7C14.7328 9.12188 14.7219 10.1281 14.7 10.7188C14.6344 12.0531 14.2297 13.0922 13.4859 13.8359C12.7641 14.5578 11.7359 14.9406 10.4016 14.9844C9.81094 15.0281 8.80469 15.05 7.38281 15.05C5.96094 15.05 4.95469 15.0281 4.36406 14.9844C3.02969 14.9187 2.00156 14.525 1.27969 13.8031C0.995312 13.5406 0.765625 13.2344 0.590625 12.8844C0.415625 12.5344 0.284375 12.1953 0.196875 11.8672C0.13125 11.5391 0.0984375 11.1563 0.0984375 10.7188C0.0546875 10.1281 0.0328125 9.12188 0.0328125 7.7C0.0328125 6.27813 0.0546875 5.26094 0.0984375 4.64844C0.164062 3.33594 0.557812 2.31875 1.27969 1.59688C2.00156 0.853126 3.02969 0.448438 4.36406 0.382813C4.95469 0.360938 5.96094 0.350001 7.38281 0.350001C8.80469 0.350001 9.81094 0.360938 10.4016 0.382813C11.7359 0.448438 12.7641 0.853126 13.4859 1.59688C14.2297 2.31875 14.6344 3.34688 14.7 4.68125ZM13.125 12.0313C13.1906 11.8563 13.2453 11.6375 13.2891 11.375C13.3328 11.0906 13.3656 10.7625 13.3875 10.3906C13.4094 9.99688 13.4203 9.67969 13.4203 9.43906C13.4203 9.19844 13.4203 8.85938 13.4203 8.42188C13.4203 7.98438 13.4203 7.74375 13.4203 7.7C13.4203 7.63438 13.4203 7.39375 13.4203 6.97813C13.4203 6.54063 13.4203 6.20156 13.4203 5.96094C13.4203 5.72031 13.4094 5.41406 13.3875 5.04219C13.3656 4.64844 13.3328 4.32031 13.2891 4.05781C13.2453 3.77344 13.1906 3.54375 13.125 3.36875C12.8625 2.69063 12.3922 2.22031 11.7141 1.95781C11.5391 1.89219 11.3094 1.8375 11.025 1.79375C10.7625 1.75 10.4344 1.71719 10.0406 1.69531C9.66875 1.67344 9.3625 1.6625 9.12187 1.6625C8.90312 1.6625 8.56406 1.6625 8.10469 1.6625C7.66719 1.6625 7.42656 1.6625 7.38281 1.6625C7.33906 1.6625 7.09844 1.6625 6.66094 1.6625C6.22344 1.6625 5.88437 1.6625 5.64375 1.6625C5.40312 1.6625 5.08594 1.67344 4.69219 1.69531C4.32031 1.71719 3.99219 1.75 3.70781 1.79375C3.44531 1.8375 3.22656 1.89219 3.05156 1.95781C2.37344 2.22031 1.90312 2.69063 1.64062 3.36875C1.575 3.54375 1.52031 3.77344 1.47656 4.05781C1.43281 4.32031 1.4 4.64844 1.37812 5.04219C1.35625 5.41406 1.34531 5.72031 1.34531 5.96094C1.34531 6.17969 1.34531 6.51875 1.34531 6.97813C1.34531 7.41563 1.34531 7.65625 1.34531 7.7C1.34531 7.7875 1.34531 7.99531 1.34531 8.32344C1.34531 8.62969 1.34531 8.89219 1.34531 9.11094C1.34531 9.30781 1.34531 9.57031 1.34531 9.89844C1.36719 10.2266 1.38906 10.5109 1.41094 10.7516C1.43281 10.9703 1.46562 11.2 1.50937 11.4406C1.55312 11.6813 1.59687 11.8781 1.64062 12.0313C1.925 12.7094 2.39531 13.1797 3.05156 13.4422C3.22656 13.5078 3.44531 13.5625 3.70781 13.6063C3.99219 13.65 4.32031 13.6828 4.69219 13.7047C5.08594 13.7266 5.39219 13.7375 5.61094 13.7375C5.85156 13.7375 6.19062 13.7375 6.62812 13.7375C7.0875 13.7375 7.33906 13.7375 7.38281 13.7375C7.44844 13.7375 7.68906 13.7375 8.10469 13.7375C8.54219 13.7375 8.88125 13.7375 9.12187 13.7375C9.3625 13.7375 9.66875 13.7266 10.0406 13.7047C10.4344 13.6828 10.7625 13.65 11.025 13.6063C11.3094 13.5625 11.5391 13.5078 11.7141 13.4422C12.3922 13.1578 12.8625 12.6875 13.125 12.0313Z" fill="#333333"/>
</svg>
