<svg width="341" height="269" viewBox="0 0 341 269" fill="none" xmlns="http://www.w3.org/2000/svg">
<path d="M242.294 3.91107C241.951 3.5107 241.322 3.3963 240.464 3.56789H232.632C214.908 3.56789 199.129 3.56789 183.864 3.5107C170.372 3.5107 157.565 3.4535 144.702 3.4535H138.355L95.0193 36.9703C93.4757 34.3393 91.9321 31.7083 90.3884 29.0772C77.4105 6.99964 71.2359 1.39445 55.7424 1.10847C43.7363 0.879686 6.91777 7.80038 7.20363 1.39445C7.2608 0.708099 3.20161 1.10847 0.0571717 1.10847V24.7876C0.0571717 30.0496 0.114343 35.1972 0.0571717 40.0588C1.02909 40.4592 3.88767 39.8301 7.2608 38.7433C10.6339 37.7138 8.74727 38.1714 11.7774 37.0275C14.3501 36.0551 16.4083 35.3116 17.0372 35.1972C17.2087 31.8226 19.8386 25.3595 20.639 23.7008C22.2398 20.4407 26.299 16.437 31.1014 16.437C35.7323 16.437 39.6771 19.2396 41.3923 23.2433C47.281 31.5939 53.6842 47.5515 61.6311 62.6512L33.1596 84.6716L29.5006 87.4742V87.5314L0 110.295V115.271C0 115.271 0.0571717 115.5 0 115.729V139.694C0.114343 141.467 -0.114343 151.534 0.114343 155.194C1.94384 186.08 19.7814 203.811 37.4474 210.274C60.0303 218.567 87.7585 211.074 96.0484 203.982C109.369 192.657 119.489 183.048 126.978 175.556C127.15 175.327 127.321 175.155 127.436 174.927C130.237 179.445 133.382 184.764 136.412 190.484L152.248 217.423L152.42 217.252C154.306 215.765 156.765 213.477 159.738 210.502L159.795 210.445C162.653 207.586 165.283 204.84 166.541 203.525C166.941 203.124 167.227 202.838 167.284 202.724C180.834 189.168 178.033 178.187 162.711 152.106C154.764 138.493 146.76 124.937 138.813 111.325L136.469 107.836H155.507C155.621 107.779 155.736 107.779 155.85 107.722L180.205 83.3561C180.148 83.0129 179.862 82.8985 179.29 83.0129H163.797C159.223 83.0129 133.553 82.5554 122.347 83.1845C121.661 82.0406 120.975 80.8395 120.289 79.6956L100.508 45.95C104.681 43.1474 123.777 30.9647 129.837 27.247C135.954 23.5292 142.472 21.413 148.246 21.2986C148.589 21.2986 148.932 21.2986 149.218 21.2986C167.57 21.2986 178.776 29.306 179.919 43.319V43.4906H180.091C180.491 43.5478 180.891 43.605 181.291 43.6622C184.722 45.8356 193.698 52.07 197.357 53.2139L205.132 45.6068L205.647 45.3781L239.892 11.1177C240.407 10.2598 240.864 9.45906 241.264 8.71552L242.465 5.74133C242.637 4.8834 242.579 4.31144 242.294 3.91107ZM119.26 161.314L119.489 161.6L119.603 161.428C119.946 162.058 120.346 162.687 120.689 163.316C113.257 175.727 100.05 190.942 81.9842 190.827C81.4696 190.827 80.8979 190.827 80.3834 190.827H79.7545C79.583 190.827 79.3543 190.827 79.1828 190.827C79.0684 190.827 78.9541 190.827 78.7826 190.827C78.6682 190.827 78.6111 190.827 78.4967 190.827C77.582 190.827 76.6672 190.713 75.6953 190.598C39.6771 186.251 29.9008 133.917 39.62 102.86C41.964 95.31 45.5087 88.9613 50.1396 84.9576C50.7113 84.4428 51.283 83.9853 51.8547 83.5849C53.0553 82.727 54.1988 81.869 55.3994 81.0111C55.5137 80.8967 55.628 80.8395 55.7996 80.7251C56.8286 79.9244 57.9149 79.1236 59.0012 78.3229C59.2299 78.1513 59.4585 77.9797 59.6301 77.8081L59.6872 77.7509C62.1456 75.8634 64.5468 73.976 66.8909 72.0313L97.1919 123.679C104.51 136.148 111.885 148.731 119.26 161.314Z" fill="white"/>
<path d="M339.943 84.1627C339.943 83.8195 339.943 83.3048 339.943 82.7328H277.912L249.955 110.702H256.015C256.529 110.702 257.101 110.644 257.673 110.644H264.019C264.076 110.644 264.19 110.702 264.248 110.702H264.419C264.476 110.702 264.591 110.702 264.705 110.644H275.282C276.196 110.644 277.111 110.644 278.026 110.702H288.145C288.317 110.702 288.546 110.702 288.717 110.644H290.89C291.118 110.644 291.347 110.644 291.576 110.644C291.576 110.644 291.518 110.644 291.518 110.702H307.755C308.213 110.644 308.67 110.644 309.127 110.473V143.589C309.127 145.991 310.328 167.955 307.698 171.444C305.754 173.96 303.582 176.477 301.181 178.765C294.434 185.285 285.973 190.375 276.025 190.776C274.253 190.833 272.48 190.776 270.594 190.547C244.295 187.344 232.003 158.689 231.031 131.292C230.516 117.336 229.259 100.578 229.945 85.2495C230.002 83.7624 230.059 82.3325 230.173 80.9026C230.516 75.8121 231.145 70.8933 232.117 66.3176C232.403 60.4265 234.004 54.8785 236.462 49.788C243.837 34.6311 259.216 23.9927 272.252 22.7344C272.938 22.6772 273.681 22.62 274.367 22.62C291.461 22.334 308.155 30.9134 309.013 47.3286C309.871 47.443 312.615 48.4725 316.102 49.788C320.219 51.3323 325.421 53.277 329.938 54.7069C334.512 56.1368 338.399 57.0519 339.771 56.4228C339.714 49.8452 339.771 42.9245 339.771 35.7751V3.74539H264.419L194.327 74.6682V80.2734L194.612 79.9874C194.269 86.7365 193.698 135.696 193.869 139.7C193.926 141.473 194.155 142.96 194.212 144.161C195.87 181.338 215.423 201.872 235.204 210.337C254.128 218.459 277.397 213.311 286.487 207.248C295.635 201.185 339.943 158.803 339.943 158.803V139.986C339.943 139.071 339.886 138.499 339.886 138.384V84.1627H339.943Z" fill="white"/>
<path d="M14.2931 258.61C13.8357 259.468 13.1496 260.212 12.1205 260.783C11.1486 261.355 9.948 261.641 8.63305 261.641C7.14659 261.641 5.88881 261.413 4.85972 260.955C3.77346 260.497 2.91588 259.868 2.17265 259.01C1.48659 258.152 0.914875 257.123 0.571845 255.922C0.228815 254.721 0.0572999 253.405 0.0572999 251.918C0.0572999 248.772 0.800532 246.37 2.34417 244.711C3.8878 243.053 5.94598 242.195 8.57588 242.195C9.77649 242.195 10.8627 242.309 11.8347 242.538C12.8066 242.767 13.607 242.996 14.2359 243.339C14.1787 244.14 14.0072 245.055 13.8357 246.084C13.6642 247.114 13.3783 247.914 13.0924 248.601H12.1205L10.5769 244.197C10.4054 244.082 10.2339 243.968 10.0052 243.911C9.77649 243.854 9.43346 243.796 8.91891 243.796C7.26093 243.796 5.94598 244.426 5.03124 245.627C4.11649 246.828 3.65912 248.944 3.65912 251.861C3.65912 252.776 3.77346 253.691 4.05932 254.606C4.34518 255.521 4.74538 256.322 5.25992 257.009C5.77447 257.695 6.46053 258.267 7.26093 258.667C8.06134 259.068 8.97608 259.296 10.0623 259.296C10.9199 259.296 11.6632 259.182 12.3492 258.896C12.9781 258.667 13.5498 258.381 13.95 257.981L14.2931 258.61Z" fill="white"/>
<path d="M16.5796 251.975C16.5796 250.431 16.7512 249.058 17.2085 247.857C17.6087 246.656 18.1805 245.626 18.9809 244.826C19.7241 244.025 20.696 243.339 21.7251 242.938C22.8114 242.481 24.012 242.309 25.2697 242.309C26.8134 242.309 28.1283 242.538 29.2146 242.995C30.358 243.453 31.2156 244.139 31.9588 244.997C32.6449 245.855 33.1594 246.885 33.5025 248.086C33.8455 249.287 34.017 250.603 34.017 252.032C34.017 255.121 33.2166 257.523 31.673 259.239C30.0722 260.898 27.9568 261.756 25.3269 261.756C23.8405 261.756 22.5827 261.527 21.4964 261.069C20.4101 260.612 19.4954 259.983 18.8093 259.125C18.0661 258.267 17.5516 257.237 17.2085 256.036C16.7512 254.721 16.5796 253.405 16.5796 251.975ZM20.1243 251.975C20.1243 253.062 20.2386 254.149 20.4102 255.121C20.6388 256.093 20.9819 256.951 21.4392 257.695C21.8966 258.438 22.4683 259.01 23.2116 259.411C23.9548 259.811 24.8124 260.04 25.8415 260.04C27.1564 260.04 28.2427 259.411 29.1003 258.095C29.9578 256.78 30.358 254.721 30.358 251.975C30.358 250.831 30.2437 249.802 30.015 248.829C29.7863 247.857 29.5005 246.999 29.0431 246.256C28.5857 245.512 28.014 244.94 27.3279 244.54C26.6419 244.139 25.7843 243.911 24.8695 243.911C23.4403 243.911 22.2396 244.54 21.3821 245.855C20.5817 247.171 20.1243 249.173 20.1243 251.975Z" fill="white"/>
<path d="M56.9432 261.241H48.9391V260.326C49.6252 259.983 50.3113 259.697 51.1117 259.411V250.603C51.1117 248.715 50.8258 247.228 50.3113 246.141C49.7967 245.055 48.7676 244.483 47.3383 244.483C46.7094 244.483 46.1377 244.597 45.6232 244.826C45.1086 245.055 44.6513 245.341 44.1939 245.741C43.7937 246.141 43.4507 246.542 43.1076 247.057C42.8218 247.514 42.5931 248.029 42.4216 248.544V259.354C43.1648 259.525 43.908 259.811 44.6513 260.269V261.184H36.6472V260.269C37.2761 259.926 38.0765 259.64 39.1056 259.354V244.769L36.6472 244.483V243.51C37.2761 243.224 38.0194 242.996 38.8769 242.767C39.7345 242.538 40.5921 242.366 41.5068 242.195H42.4216V246.37H42.4787C42.9933 245.226 43.7365 244.254 44.7084 243.453C45.6804 242.652 46.881 242.252 48.2531 242.252C49.225 242.252 50.1397 242.366 50.883 242.595C51.6834 242.824 52.3123 243.224 52.8268 243.854C53.3414 244.426 53.7416 245.226 54.0274 246.256C54.3133 247.228 54.4276 248.544 54.4276 250.031V259.411C55.3995 259.582 56.2571 259.868 56.886 260.326V261.241H56.9432Z" fill="white"/>
<path d="M68.4917 257.009C68.4917 256.322 68.263 255.75 67.8628 255.235C67.4054 254.778 66.8909 254.32 66.2048 253.863C65.5188 253.462 64.8327 253.005 64.0895 252.604C63.3462 252.204 62.603 251.747 61.9741 251.232C61.2881 250.717 60.7735 250.088 60.3161 249.402C59.8588 248.715 59.6872 247.857 59.6872 246.828C59.6872 246.141 59.8588 245.569 60.1446 244.997C60.4305 244.426 60.8879 243.911 61.4024 243.51C61.9169 243.11 62.5458 242.767 63.2319 242.538C63.918 242.309 64.6612 242.195 65.4616 242.195C66.7765 242.195 67.8628 242.252 68.7204 242.424C69.578 242.595 70.3784 242.767 71.1788 243.053C71.0644 243.854 70.9501 244.654 70.8357 245.455C70.7214 246.256 70.4927 247.057 70.264 247.914H69.3493L67.92 244.14C67.6341 244.025 67.2911 243.911 66.8909 243.911C66.5479 243.854 66.1477 243.854 65.7475 243.854C65.2901 243.854 64.947 243.911 64.604 244.082C64.261 244.254 63.9751 244.426 63.7464 244.711C63.5178 244.94 63.3462 245.226 63.2319 245.569C63.1176 245.913 63.0604 246.199 63.0604 246.542C63.0604 247.228 63.2891 247.8 63.6893 248.258C64.1466 248.715 64.6612 249.173 65.3473 249.573C66.0333 249.973 66.7194 250.374 67.4626 250.774C68.2058 251.175 68.9491 251.632 69.578 252.09C70.264 252.604 70.7786 253.176 71.2359 253.806C71.6933 254.435 71.8648 255.236 71.8648 256.151C71.8648 257.009 71.6933 257.752 71.3503 258.438C71.0072 259.125 70.4927 259.64 69.8638 260.154C69.2349 260.612 68.4917 261.012 67.6913 261.241C66.8909 261.527 65.9761 261.641 65.0614 261.641C63.9751 261.641 63.0032 261.527 62.1456 261.355C61.2309 261.184 60.3161 260.898 59.3442 260.555C59.4014 259.64 59.5157 258.782 59.6872 257.981C59.8588 257.18 60.0874 256.379 60.3733 255.579H61.2881L62.946 259.64C63.2319 259.868 63.5178 259.926 63.918 259.983C64.3182 259.983 64.6612 260.04 64.947 260.04C66.0333 260.04 66.8909 259.754 67.5769 259.125C68.1487 258.553 68.4917 257.809 68.4917 257.009Z" fill="white"/>
<path d="M74.1517 243.625C75.0664 242.996 76.0955 242.595 77.1246 242.309V239.164C77.4676 238.935 77.8107 238.706 78.268 238.42C78.7254 238.191 79.1256 237.962 79.5258 237.791H80.4406V242.652H85.9862V244.597H80.4406V255.293C80.4406 256.78 80.6693 257.809 81.1266 258.439C81.584 259.068 82.3272 259.354 83.242 259.354C83.6994 259.354 84.2139 259.296 84.9 259.239C85.586 259.182 86.1578 259.068 86.6151 258.896L86.901 259.468C86.7295 259.697 86.4436 259.926 86.0434 260.154C85.7004 260.383 85.3002 260.612 84.8428 260.841C84.3854 261.069 83.8709 261.241 83.3563 261.413C82.7846 261.584 82.2701 261.641 81.6983 261.641C80.2119 261.641 79.0685 261.241 78.3252 260.383C77.5248 259.525 77.1818 258.21 77.1818 256.322V244.597H74.2088V243.625H74.1517Z" fill="white"/>
<path d="M96.3343 245.455C96.0484 245.626 95.7054 245.912 95.3052 246.37C94.905 246.828 94.5048 247.514 94.2189 248.372V259.354C94.7335 259.411 95.1908 259.468 95.7054 259.64C96.2199 259.754 96.6773 259.983 97.1918 260.269V261.184H88.4446V260.269C88.902 260.04 89.3022 259.811 89.7024 259.697C90.1026 259.582 90.5028 259.468 90.903 259.354V244.769L88.4446 244.483V243.51C89.245 243.167 90.0454 242.881 90.903 242.652C91.7605 242.424 92.5609 242.309 93.3042 242.138H94.2189V246.084H94.3904C94.6191 245.569 94.905 245.112 95.3624 244.597C95.7626 244.082 96.2199 243.682 96.7916 243.281C97.3062 242.881 97.8779 242.595 98.5068 242.366C99.1357 242.138 99.7646 242.08 100.451 242.138C100.622 242.481 100.794 242.824 100.908 243.167C101.022 243.567 101.194 243.968 101.308 244.368V245.341H96.3343V245.455Z" fill="white"/>
<path d="M104.395 253.863C104.395 252.319 104.453 250.774 104.51 249.287C104.567 247.8 104.624 246.313 104.624 244.826L102.166 244.54V243.568C102.966 243.282 103.766 242.996 104.567 242.767C105.367 242.538 106.225 242.366 106.968 242.195H107.883C107.883 244.025 107.826 245.913 107.768 247.743C107.711 249.573 107.654 251.403 107.654 253.176C107.654 254.149 107.711 255.007 107.826 255.75C107.94 256.494 108.111 257.18 108.397 257.695C108.683 258.21 109.083 258.61 109.541 258.896C110.055 259.182 110.684 259.296 111.427 259.296C112.514 259.296 113.486 258.896 114.229 258.095C114.972 257.295 115.544 256.265 116.001 254.95V244.769L113.6 244.483V243.51C114.343 243.224 115.144 242.938 116.001 242.71C116.802 242.481 117.659 242.309 118.46 242.138H119.374V259.01L121.833 259.296V260.097C121.089 260.383 120.403 260.726 119.66 260.955C118.917 261.184 118.174 261.355 117.373 261.527H116.459L116.23 257.123H116.058C115.944 257.638 115.715 258.153 115.429 258.725C115.144 259.239 114.743 259.754 114.229 260.154C113.714 260.612 113.2 260.955 112.514 261.241C111.885 261.527 111.199 261.641 110.456 261.641C109.484 261.641 108.569 261.527 107.826 261.298C107.082 261.07 106.454 260.669 105.939 260.04C105.424 259.468 105.024 258.667 104.738 257.638C104.51 256.665 104.395 255.407 104.395 253.863Z" fill="white"/>
<path d="M138.641 258.61C138.184 259.468 137.498 260.212 136.469 260.783C135.497 261.355 134.296 261.641 132.981 261.641C131.495 261.641 130.237 261.413 129.208 260.955C128.122 260.497 127.207 259.868 126.521 259.01C125.778 258.152 125.263 257.123 124.92 255.922C124.577 254.721 124.406 253.405 124.406 251.918C124.406 248.772 125.149 246.37 126.692 244.711C128.236 243.053 130.294 242.195 132.924 242.195C134.125 242.195 135.211 242.309 136.183 242.538C137.155 242.767 137.955 242.996 138.584 243.339C138.527 244.14 138.355 245.055 138.184 246.084C138.012 247.114 137.727 247.914 137.441 248.601H136.469L134.925 244.197C134.754 244.082 134.582 243.968 134.353 243.911C134.125 243.854 133.782 243.796 133.267 243.796C131.609 243.796 130.294 244.426 129.38 245.627C128.465 246.828 128.007 248.944 128.007 251.861C128.007 252.776 128.122 253.691 128.408 254.606C128.636 255.521 129.036 256.322 129.608 257.009C130.123 257.695 130.809 258.267 131.609 258.667C132.41 259.068 133.324 259.296 134.411 259.296C135.268 259.296 136.011 259.182 136.698 258.896C137.326 258.667 137.898 258.381 138.298 257.981L138.641 258.61Z" fill="white"/>
<path d="M140.585 243.625C141.5 242.996 142.529 242.595 143.558 242.309V239.164C143.901 238.935 144.244 238.706 144.702 238.42C145.159 238.191 145.559 237.962 145.959 237.791H146.874V242.652H152.42V244.597H146.874V255.293C146.874 256.78 147.103 257.809 147.56 258.439C148.018 259.068 148.761 259.354 149.676 259.354C150.133 259.354 150.705 259.296 151.334 259.239C152.02 259.182 152.591 259.068 153.049 258.896L153.335 259.468C153.163 259.697 152.877 259.926 152.477 260.154C152.134 260.383 151.734 260.612 151.276 260.841C150.819 261.069 150.304 261.241 149.79 261.413C149.218 261.584 148.704 261.641 148.132 261.641C146.645 261.641 145.502 261.241 144.759 260.383C143.958 259.525 143.615 258.21 143.615 256.322V244.597H140.642V243.625H140.585Z" fill="white"/>
<path d="M163.511 261.241H155.278V260.326C155.621 260.097 156.022 259.983 156.422 259.811C156.822 259.697 157.222 259.525 157.737 259.411V244.826L155.278 244.54V243.568C155.964 243.282 156.765 242.996 157.622 242.767C158.48 242.538 159.28 242.366 160.138 242.195H161.053V259.354C161.567 259.468 161.967 259.582 162.368 259.754C162.768 259.868 163.111 260.04 163.454 260.269V261.241H163.511ZM157.051 236.418C157.051 235.732 157.279 235.217 157.68 234.817C158.137 234.416 158.709 234.245 159.395 234.245C160.081 234.245 160.652 234.473 161.11 234.817C161.51 235.217 161.739 235.732 161.739 236.418C161.739 237.104 161.51 237.619 161.11 237.962C160.71 238.363 160.138 238.534 159.395 238.534C158.651 238.534 158.08 238.363 157.68 237.962C157.222 237.562 157.051 237.047 157.051 236.418Z" fill="white"/>
<path d="M166.427 251.975C166.427 250.431 166.598 249.058 167.056 247.857C167.456 246.656 168.028 245.626 168.828 244.826C169.571 244.025 170.486 243.339 171.572 242.938C172.659 242.481 173.859 242.309 175.117 242.309C176.661 242.309 177.976 242.538 179.062 242.995C180.148 243.453 181.063 244.139 181.806 244.997C182.492 245.855 183.007 246.885 183.35 248.086C183.693 249.287 183.864 250.603 183.864 252.032C183.864 255.121 183.064 257.523 181.463 259.239C179.862 260.898 177.747 261.756 175.117 261.756C173.631 261.756 172.373 261.527 171.286 261.069C170.2 260.612 169.285 259.983 168.599 259.125C167.856 258.267 167.342 257.237 166.999 256.036C166.598 254.721 166.427 253.405 166.427 251.975ZM169.972 251.975C169.972 253.062 170.086 254.149 170.257 255.121C170.486 256.093 170.829 256.951 171.286 257.695C171.744 258.438 172.316 259.01 173.059 259.411C173.802 259.811 174.66 260.04 175.746 260.04C177.061 260.04 178.147 259.411 179.005 258.095C179.862 256.78 180.262 254.721 180.262 251.975C180.262 250.831 180.148 249.802 179.977 248.829C179.748 247.857 179.462 246.999 179.005 246.256C178.547 245.512 177.976 244.94 177.29 244.54C176.603 244.139 175.803 243.911 174.831 243.911C173.402 243.911 172.201 244.54 171.286 245.855C170.429 247.171 169.972 249.173 169.972 251.975Z" fill="white"/>
<path d="M198.843 261.241V260.326C199.529 259.983 200.215 259.697 201.016 259.411V250.603C201.016 248.715 200.73 247.228 200.215 246.141C199.701 245.055 198.672 244.483 197.242 244.483C196.613 244.483 196.042 244.597 195.527 244.826C195.013 245.055 194.555 245.341 194.155 245.741C193.755 246.141 193.412 246.542 193.069 247.057C192.783 247.514 192.554 248.029 192.383 248.544V259.354C193.126 259.525 193.869 259.811 194.612 260.269V261.184H186.608V260.269C187.237 259.926 188.038 259.64 189.067 259.354V244.769L186.608 244.483V243.51C187.237 243.224 187.981 242.996 188.838 242.767C189.696 242.538 190.553 242.366 191.468 242.195H192.383V246.37H192.44C192.954 245.226 193.698 244.254 194.67 243.453C195.642 242.652 196.842 242.252 198.214 242.252C199.186 242.252 200.101 242.366 200.844 242.595C201.645 242.824 202.273 243.224 202.788 243.854C203.303 244.426 203.703 245.226 203.989 246.256C204.274 247.228 204.389 248.544 204.389 250.031V259.411C205.361 259.582 206.218 259.868 206.847 260.326V261.241H198.843Z" fill="white"/>
<path d="M217.538 252.948C217.538 252.204 217.767 251.632 218.224 251.175C218.682 250.717 219.311 250.488 220.054 250.488C220.797 250.488 221.426 250.717 221.883 251.175C222.341 251.632 222.569 252.204 222.569 252.948C222.569 253.634 222.341 254.263 221.883 254.664C221.426 255.121 220.797 255.35 220.054 255.35C219.311 255.35 218.682 255.121 218.224 254.664C217.767 254.206 217.538 253.634 217.538 252.948Z" fill="white"/>
<path d="M246.581 257.523C246.467 258.095 246.238 258.61 245.953 259.068C245.667 259.582 245.266 259.983 244.866 260.383C244.409 260.784 243.952 261.07 243.38 261.298C242.808 261.527 242.236 261.641 241.607 261.641C239.149 261.641 237.32 260.841 236.119 259.296C234.918 257.752 234.29 255.293 234.29 252.033C234.29 248.887 235.033 246.485 236.576 244.826C238.12 243.167 240.178 242.366 242.808 242.366C243.723 242.366 244.466 242.424 244.981 242.481C245.495 242.595 246.067 242.71 246.696 242.938V235.961L243.894 235.675V234.702C244.638 234.416 245.438 234.13 246.41 233.902C247.382 233.673 248.297 233.501 249.154 233.33H250.069V259.068L252.527 259.354V260.154C251.841 260.498 251.098 260.784 250.298 261.07C249.554 261.298 248.754 261.47 248.011 261.584H247.096L246.753 257.523H246.581ZM242.294 259.354C243.494 259.354 244.466 258.953 245.152 258.21C245.838 257.466 246.353 256.379 246.639 255.121V244.654C246.238 244.426 245.724 244.254 245.152 244.14C244.58 244.025 243.837 243.968 242.98 243.968C241.322 243.968 240.007 244.712 239.149 246.199C238.234 247.686 237.834 249.63 237.834 252.09C237.834 253.119 237.891 254.034 238.12 254.95C238.292 255.808 238.577 256.608 238.92 257.237C239.321 257.924 239.778 258.439 240.293 258.839C240.864 259.182 241.55 259.354 242.294 259.354Z" fill="white"/>
<path d="M269.85 258.61C269.679 259.01 269.336 259.411 268.936 259.811C268.535 260.154 268.021 260.497 267.506 260.783C266.935 261.069 266.363 261.298 265.734 261.413C265.105 261.584 264.419 261.641 263.79 261.641C262.304 261.641 261.046 261.413 259.96 260.955C258.873 260.497 257.902 259.868 257.158 259.01C256.415 258.152 255.843 257.123 255.443 255.979C255.043 254.778 254.871 253.462 254.871 251.975C254.871 248.829 255.615 246.427 257.044 244.769C258.473 243.11 260.589 242.309 263.219 242.309C264.076 242.309 264.934 242.424 265.791 242.652C266.649 242.881 267.392 243.281 268.021 243.796C268.707 244.368 269.222 245.055 269.622 245.97C270.022 246.885 270.251 247.972 270.251 249.344C270.251 249.745 270.251 250.202 270.193 250.603C270.136 251.06 270.079 251.518 269.965 251.975H258.416C258.416 253.005 258.53 253.977 258.816 254.892C259.102 255.807 259.445 256.551 259.96 257.237C260.474 257.924 261.16 258.438 261.904 258.839C262.704 259.239 263.619 259.411 264.705 259.411C265.563 259.411 266.42 259.296 267.335 259.01C268.25 258.782 268.879 258.438 269.336 258.038L269.85 258.61ZM263.047 243.853C261.618 243.853 260.589 244.311 259.845 245.283C259.102 246.256 258.645 247.914 258.53 250.317H266.649C266.706 250.088 266.706 249.859 266.706 249.687C266.706 249.459 266.706 249.287 266.706 249.058C266.706 247.457 266.42 246.198 265.791 245.283C265.22 244.368 264.305 243.853 263.047 243.853Z" fill="white"/>
<path d="M282.886 257.009C282.886 256.322 282.657 255.75 282.257 255.235C281.799 254.778 281.285 254.32 280.599 253.863C279.913 253.462 279.227 253.005 278.483 252.604C277.74 252.204 276.997 251.747 276.368 251.232C275.682 250.717 275.167 250.088 274.71 249.402C274.253 248.715 274.081 247.857 274.081 246.828C274.081 246.141 274.253 245.569 274.538 244.997C274.824 244.426 275.282 243.911 275.796 243.51C276.311 243.11 276.94 242.767 277.626 242.538C278.312 242.309 279.055 242.195 279.855 242.195C281.17 242.195 282.257 242.252 283.114 242.424C283.972 242.595 284.772 242.767 285.573 243.053C285.458 243.854 285.344 244.654 285.23 245.455C285.115 246.256 284.887 247.057 284.658 247.914H283.743L282.314 244.14C282.028 244.025 281.685 243.911 281.285 243.911C280.885 243.854 280.541 243.854 280.141 243.854C279.684 243.854 279.284 243.911 278.998 244.082C278.655 244.254 278.369 244.426 278.14 244.711C277.912 244.94 277.74 245.226 277.626 245.569C277.511 245.913 277.454 246.199 277.454 246.542C277.454 247.228 277.683 247.8 278.083 248.258C278.54 248.715 279.055 249.173 279.741 249.573C280.427 249.973 281.113 250.374 281.856 250.774C282.6 251.175 283.343 251.632 283.972 252.09C284.658 252.604 285.172 253.176 285.63 253.806C286.087 254.435 286.259 255.236 286.259 256.151C286.259 257.009 286.087 257.752 285.744 258.438C285.401 259.125 284.887 259.64 284.258 260.154C283.629 260.612 282.886 261.012 282.085 261.241C281.285 261.527 280.37 261.641 279.455 261.641C278.369 261.641 277.397 261.527 276.539 261.355C275.625 261.184 274.71 260.898 273.738 260.555C273.795 259.64 273.91 258.782 274.081 257.981C274.253 257.18 274.481 256.379 274.767 255.579H275.682L277.34 259.64C277.626 259.868 277.912 259.926 278.312 259.983C278.712 259.983 279.055 260.04 279.341 260.04C280.427 260.04 281.285 259.754 281.971 259.125C282.543 258.553 282.886 257.809 282.886 257.009Z" fill="white"/>
<path d="M297.693 261.241H289.46V260.326C289.803 260.097 290.203 259.983 290.604 259.811C291.004 259.697 291.404 259.525 291.919 259.411V244.826L289.46 244.54V243.568C290.146 243.282 290.947 242.996 291.804 242.767C292.662 242.538 293.462 242.366 294.32 242.195H295.235V259.354C295.749 259.468 296.149 259.582 296.55 259.754C296.95 259.868 297.293 260.04 297.636 260.269V261.241H297.693ZM291.233 236.418C291.233 235.732 291.461 235.217 291.861 234.817C292.262 234.416 292.891 234.245 293.577 234.245C294.263 234.245 294.834 234.473 295.292 234.817C295.692 235.217 295.921 235.732 295.921 236.418C295.921 237.104 295.692 237.619 295.292 237.962C294.892 238.363 294.32 238.534 293.577 238.534C292.833 238.534 292.262 238.363 291.861 237.962C291.461 237.562 291.233 237.047 291.233 236.418Z" fill="white"/>
<path d="M308.27 242.252C309.585 242.252 310.728 242.366 311.643 242.652C312.558 242.938 313.301 243.339 313.93 243.854C315.416 242.881 316.903 242.138 318.503 241.68C318.675 241.966 318.846 242.309 318.904 242.71C319.018 243.11 319.018 243.453 319.018 243.796L318.561 244.654H314.673C315.302 245.569 315.588 246.713 315.588 248.2C315.588 249.973 314.959 251.403 313.701 252.547C312.443 253.634 310.614 254.206 308.212 254.206C307.755 254.206 307.355 254.206 307.069 254.149C306.783 254.149 306.44 254.092 306.097 254.034C305.983 254.263 305.811 254.492 305.697 254.778C305.525 255.064 305.468 255.35 305.468 255.636C305.468 256.151 305.754 256.551 306.326 256.78C306.898 257.066 307.584 257.295 308.441 257.523C309.299 257.752 310.214 257.981 311.243 258.21C312.215 258.438 313.186 258.782 314.044 259.182C314.902 259.582 315.645 260.097 316.217 260.783C316.788 261.413 317.074 262.271 317.131 263.3C317.131 264.215 316.96 265.016 316.502 265.702C316.045 266.446 315.473 267.018 314.73 267.475C313.987 267.933 313.072 268.333 311.986 268.562C310.9 268.848 309.756 268.963 308.441 268.963C305.754 268.963 303.696 268.505 302.324 267.59C300.952 266.675 300.266 265.531 300.266 264.158C300.266 263.472 300.38 262.9 300.552 262.442C300.78 261.927 301.066 261.527 301.466 261.127C301.866 260.726 302.324 260.44 302.953 260.154C303.524 259.868 304.21 259.582 305.011 259.354C304.439 259.125 304.039 258.782 303.639 258.324C303.296 257.866 303.124 257.352 303.124 256.723C303.124 256.151 303.353 255.579 303.867 255.007C304.325 254.435 304.839 254.034 305.354 253.691C303.925 253.348 302.896 252.604 302.095 251.575C301.352 250.545 300.952 249.344 300.952 248.086C300.952 247.228 301.123 246.485 301.409 245.741C301.752 244.997 302.209 244.368 302.838 243.854C303.467 243.282 304.21 242.881 305.125 242.595C305.983 242.366 307.069 242.252 308.27 242.252ZM313.758 264.215C313.758 263.415 313.472 262.785 312.958 262.328C312.443 261.87 311.757 261.47 310.957 261.184C310.156 260.898 309.299 260.669 308.384 260.44C307.469 260.269 306.612 260.04 305.811 259.754C304.897 260.326 304.268 260.898 303.982 261.584C303.696 262.213 303.524 262.843 303.524 263.529C303.524 264.844 303.982 265.817 304.954 266.446C305.868 267.075 307.241 267.418 309.013 267.418C309.928 267.418 310.671 267.361 311.3 267.132C311.929 266.961 312.386 266.732 312.729 266.446C313.072 266.16 313.358 265.817 313.472 265.416C313.701 265.073 313.758 264.673 313.758 264.215ZM304.268 248.2C304.268 248.772 304.325 249.344 304.496 249.859C304.611 250.374 304.839 250.831 305.182 251.232C305.468 251.632 305.926 251.918 306.44 252.204C306.955 252.433 307.584 252.547 308.384 252.547C309.813 252.547 310.842 252.147 311.471 251.289C312.1 250.431 312.386 249.402 312.386 248.2C312.386 246.885 312.1 245.798 311.471 245.055C310.842 244.254 309.813 243.911 308.384 243.911C306.898 243.911 305.811 244.311 305.24 245.055C304.554 245.741 304.268 246.828 304.268 248.2Z" fill="white"/>
<path d="M332.053 261.241V260.326C332.739 259.983 333.425 259.697 334.226 259.411V250.603C334.226 248.715 333.94 247.228 333.425 246.141C332.911 245.055 331.882 244.483 330.452 244.483C329.823 244.483 329.252 244.597 328.737 244.826C328.223 245.055 327.765 245.341 327.308 245.741C326.908 246.141 326.565 246.542 326.279 247.057C325.993 247.514 325.764 248.029 325.593 248.544V259.354C326.336 259.525 327.079 259.811 327.822 260.269V261.184H319.818V260.269C320.447 259.926 321.248 259.64 322.277 259.354V244.769L319.818 244.483V243.51C320.447 243.224 321.19 242.996 322.048 242.767C322.906 242.538 323.763 242.366 324.678 242.195H325.593V246.37H325.65C326.164 245.226 326.908 244.254 327.879 243.453C328.851 242.652 330.052 242.252 331.424 242.252C332.396 242.252 333.311 242.366 334.054 242.595C334.854 242.824 335.483 243.224 335.998 243.854C336.512 244.426 336.913 245.226 337.198 246.256C337.484 247.228 337.599 248.544 337.599 250.031V259.411C338.571 259.582 339.428 259.868 340.057 260.326V261.241H332.053Z" fill="white"/>
</svg>
