<svg width="14" height="14" viewBox="0 0 14 14" fill="none" xmlns="http://www.w3.org/2000/svg">
<path d="M0.508677 0.673052L3.35243 0.0168838C3.6618 -0.0545108 3.97803 0.105806 4.10318 0.39781L5.41568 3.46023C5.47174 3.59105 5.48376 3.73655 5.44991 3.87479C5.41607 4.01303 5.3382 4.13653 5.22805 4.22665L3.57055 5.58279C4.55419 7.67938 6.27589 9.42481 8.41721 10.4294L9.77335 8.77195C9.86347 8.6618 9.98697 8.58393 10.1252 8.55008C10.2635 8.51624 10.4089 8.52826 10.5398 8.58432L13.6022 9.89682C13.8941 10.0219 14.0545 10.3381 13.9831 10.6476L13.3269 13.4913C13.2587 13.7868 12.9952 14 12.6875 14C5.68513 14 0 8.32529 0 1.31249C0 1.00689 0.21093 0.74174 0.508677 0.673052Z" fill="#961818"/>
</svg>
